<svg width="24" height="24" viewBox="0 0 24 24" fill="none" xmlns="http://www.w3.org/2000/svg">
<path fill-rule="evenodd" clip-rule="evenodd" d="M6 6.28571C6 5.94472 6.13546 5.6177 6.37658 5.37658C6.6177 5.13546 6.94472 5 7.28571 5H8.14286C8.48385 5 8.81088 5.13546 9.05199 5.37658C9.29311 5.6177 9.42857 5.94472 9.42857 6.28571H12.972C13.0663 6.12231 13.212 5.9946 13.3863 5.92239C13.5606 5.85018 13.7539 5.83751 13.9362 5.88635C14.1184 5.93518 14.2795 6.0428 14.3943 6.19249C14.5092 6.34219 14.5715 6.5256 14.5715 6.71429C14.5715 6.90297 14.5092 7.08639 14.3943 7.23608C14.2795 7.38578 14.1184 7.49339 13.9362 7.54222C13.7539 7.59106 13.5606 7.57839 13.3863 7.50618C13.212 7.43398 13.0663 7.30626 12.972 7.14286H11.2491C11.4029 7.29714 11.5411 7.47 11.664 7.66143C12.2109 8.51171 12.4286 9.67914 12.4286 11C12.4286 12.7083 12.6489 13.6503 13.0397 14.1714C13.3449 14.5794 13.8069 14.7894 14.5714 14.8434C14.575 14.5048 14.7121 14.1813 14.9528 13.9431C15.1935 13.705 15.5185 13.5714 15.8571 13.5714H16.7143C17.0553 13.5714 17.3823 13.7069 17.6234 13.948C17.8645 14.1891 18 14.5162 18 14.8571V15.7143C18 16.0553 17.8645 16.3823 17.6234 16.6234C17.3823 16.8645 17.0553 17 16.7143 17H15.8571C15.5162 17 15.1891 16.8645 14.948 16.6234C14.7069 16.3823 14.5714 16.0553 14.5714 15.7143H11.028C10.9337 15.8777 10.788 16.0054 10.6137 16.0776C10.4394 16.1498 10.2461 16.1625 10.0638 16.1137C9.88159 16.0648 9.72054 15.9572 9.60568 15.8075C9.49081 15.6578 9.42855 15.4744 9.42855 15.2857C9.42855 15.097 9.49081 14.9136 9.60568 14.7639C9.72054 14.6142 9.88159 14.5066 10.0638 14.4578C10.2461 14.4089 10.4394 14.4216 10.6137 14.4938C10.788 14.566 10.9337 14.6937 11.028 14.8571H12.4946C12.445 14.8021 12.3978 14.7449 12.3531 14.6857C11.7797 13.9203 11.5714 12.7203 11.5714 11C11.5714 9.74857 11.3606 8.774 10.9431 8.12429C10.6089 7.60571 10.1271 7.26714 9.42857 7.17114C9.42118 7.50721 9.28246 7.82702 9.04214 8.06205C8.80182 8.29708 8.47901 8.42865 8.14286 8.42857H7.28571C6.94472 8.42857 6.6177 8.29311 6.37658 8.05199C6.13546 7.81088 6 7.48385 6 7.14286V6.28571ZM7.28571 5.85714C7.17205 5.85714 7.06304 5.9023 6.98267 5.98267C6.9023 6.06304 6.85714 6.17205 6.85714 6.28571V7.14286C6.85714 7.25652 6.9023 7.36553 6.98267 7.4459C7.06304 7.52628 7.17205 7.57143 7.28571 7.57143H8.14286C8.25652 7.57143 8.36553 7.52628 8.4459 7.4459C8.52628 7.36553 8.57143 7.25652 8.57143 7.14286V6.28571C8.57143 6.17205 8.52628 6.06304 8.4459 5.98267C8.36553 5.9023 8.25652 5.85714 8.14286 5.85714H7.28571ZM15.8571 14.4286C15.7435 14.4286 15.6345 14.4737 15.5541 14.5541C15.4737 14.6345 15.4286 14.7435 15.4286 14.8571V15.7143C15.4286 15.828 15.4737 15.937 15.5541 16.0173C15.6345 16.0977 15.7435 16.1429 15.8571 16.1429H16.7143C16.828 16.1429 16.937 16.0977 17.0173 16.0173C17.0977 15.937 17.1429 15.828 17.1429 15.7143V14.8571C17.1429 14.7435 17.0977 14.6345 17.0173 14.5541C16.937 14.4737 16.828 14.4286 16.7143 14.4286H15.8571Z" fill="black"/>
<path d="M19.73 20.246C19.7978 20.246 19.8649 20.2327 19.9275 20.2067C19.9901 20.1808 20.047 20.1428 20.0949 20.0949C20.1428 20.047 20.1808 19.9901 20.2067 19.9275C20.2327 19.8649 20.246 19.7978 20.246 19.73V1.521C20.2457 1.38432 20.1913 1.25333 20.0945 1.15678C19.9978 1.06023 19.8667 1.006 19.73 1.006H6.417C5.71114 1.00679 5.03441 1.28748 4.5352 1.7865C4.036 2.28552 3.75506 2.96215 3.754 3.668V21.248C3.79486 21.7222 4.01128 22.164 4.36088 22.487C4.71048 22.81 5.16806 22.9908 5.644 22.994H19.73C19.8666 22.994 19.9976 22.9397 20.0942 22.8432C20.1907 22.7466 20.245 22.6156 20.245 22.479C20.245 22.3424 20.1907 22.2114 20.0942 22.1148C19.9976 22.0183 19.8666 21.964 19.73 21.964H18.53V20.246H19.73ZM17.5 21.964H5.644C5.41618 21.964 5.19769 21.8735 5.0366 21.7124C4.8755 21.5513 4.785 21.3328 4.785 21.105C4.785 20.8772 4.8755 20.6587 5.0366 20.4976C5.19769 20.3365 5.41618 20.246 5.644 20.246H17.5V21.964ZM5.644 19.215C5.50322 19.2158 5.36299 19.2326 5.226 19.265C5.182 19.275 5.142 19.292 5.099 19.305C5.01035 19.332 4.92379 19.3654 4.84 19.405C4.823 19.413 4.802 19.417 4.785 19.426V3.668C4.78553 3.23533 4.95764 2.82053 5.26359 2.51459C5.56953 2.20864 5.98433 2.03653 6.417 2.036H19.217V19.215H5.644Z" fill="black"/>
</svg>
